<svg width="872" height="478" viewBox="0 0 872 478" fill="none" xmlns="http://www.w3.org/2000/svg">
<g clip-path="url(#clip0)">
<path opacity="0.1" d="M805.142 377.978C804.171 380.134 803.202 382.262 802.237 384.361C800.729 387.621 799.241 390.818 797.773 393.952C797.12 395.341 796.467 396.704 795.83 398.067C788.629 413.222 781.904 426.626 776.193 437.649C771.011 447.637 763.317 456.006 753.916 461.879C744.515 467.752 733.753 470.913 722.759 471.03L595.767 472.453H594.428L583.541 472.574L574.23 472.677L545.674 472.996H544.519L529.981 473.16H529.538L439.936 474.161L359.956 475.023L350.653 475.127L292.872 475.774H292.805L255.331 476.188H254.929L136.438 477.508L100.99 477.904C93.426 477.992 85.8934 476.881 78.657 474.609C66.0643 470.691 54.7471 463.311 45.9231 453.261C30.6992 435.984 19.6037 415.827 12.1508 393.952C11.0734 390.795 10.0685 387.598 9.13618 384.361C-16.6641 294.526 14.7886 178.625 71.3968 101.064C73.7694 97.8212 76.1811 94.6585 78.6319 91.5763L78.6905 91.5073C96.1 69.495 115.62 51.1054 136.412 38.0291C173.258 14.8179 214.081 8.27975 254.234 27.7648C288.208 44.2568 319.928 52.0111 350.678 54.1157C353.784 54.3227 356.891 54.478 359.981 54.5729C430.515 56.8586 496.62 30.6802 574.246 13.7828C577.336 13.11 580.435 12.4459 583.558 11.8162C638.935 0.465027 700.367 -5.52107 773.422 7.06355C781.011 8.3407 788.501 10.1857 795.83 12.5839C799.052 13.6534 802.156 14.8035 805.142 16.0341C840.012 30.6457 859.029 57.6435 867.11 91.4728C867.875 94.6125 868.536 97.8068 869.094 101.056C883.422 182.429 841.46 297.855 805.142 377.978Z" fill="#6554C0"/>
<g opacity="0.1">
<path opacity="0.1" d="M136.412 38.0299V477.603L100.965 478C93.4007 478.088 85.8681 476.977 78.6317 474.705V91.5081H78.6904C96.0999 69.4699 115.62 51.0803 136.412 38.0299Z" fill="#6554C0"/>
<path opacity="0.1" d="M869.136 101.065H71.3966C73.7692 97.8219 76.1809 94.6592 78.6317 91.577V91.5081H867.151C867.916 94.6305 868.578 97.8162 869.136 101.065Z" fill="#6554C0"/>
<path opacity="0.1" d="M805.142 16.0434V384.353H802.236C800.729 387.613 799.241 390.81 797.773 393.944C797.12 395.333 796.467 396.696 795.83 398.059V12.5587C799.051 13.6283 802.155 14.7899 805.142 16.0434Z" fill="#6554C0"/>
<path opacity="0.1" d="M583.558 11.7911V472.609L574.246 472.713V13.7577C577.336 13.0849 580.434 12.4207 583.558 11.7911Z" fill="#6554C0"/>
<path opacity="0.1" d="M359.981 54.5477V475.111L350.677 475.214V54.0906C353.784 54.2976 356.891 54.4184 359.981 54.5477Z" fill="#6554C0"/>
<path opacity="0.1" d="M802.236 384.361C800.729 387.622 799.241 390.819 797.773 393.953H12.1507C11.0732 390.796 10.0683 387.599 9.13602 384.361H802.236Z" fill="#6554C0"/>
</g>
<path d="M193.104 229.292H177.194V279.027H193.104V229.292Z" fill="#3F3D56"/>
<path d="M621.291 226.704H605.381V279.32H621.291V226.704Z" fill="#3F3D56"/>
<path d="M722.759 460.3V471.514L595.541 472.721L594.185 472.747L545.833 473.204L544.678 473.221L529.981 473.351H529.546L439.961 474.205L292.905 475.611H292.78L255.39 475.973L254.988 475.982L88.848 477.552V464.613L127.913 440.462L206.293 439.789L207.968 439.78L208.521 439.772L210.195 439.746L247.828 439.427L249.511 439.418L250.047 439.409L251.722 439.401L263.789 439.297L264.107 439.289L293.877 439.03H294.12L526.414 437.012L532.1 436.968H532.669L537.007 436.925L568.535 436.658L570.21 436.632L571.759 436.615H572.563L582.369 436.537L584.312 436.511L586.916 436.494L595.081 436.416L608.035 436.304L609.71 436.287L612.624 436.27H613.168L675.73 435.718L722.759 460.3Z" fill="#65617D"/>
<path opacity="0.2" d="M722.759 460.3V471.514L595.541 472.721L594.185 472.747L545.833 473.204L544.678 473.221L529.981 473.351H529.546L439.961 474.205L292.905 475.611H292.78L255.39 475.973L254.988 475.982L88.848 477.552V464.613L127.913 440.462L206.293 439.789L207.968 439.78L208.521 439.772L210.195 439.746L247.828 439.427L249.511 439.418L250.047 439.409L251.722 439.401L263.789 439.297L264.107 439.289L293.877 439.03H294.12L526.414 437.012L532.1 436.968H532.669L537.007 436.925L568.535 436.658L570.21 436.632L571.759 436.615H572.563L582.369 436.537L584.312 436.511L586.916 436.494L595.081 436.416L608.035 436.304L609.71 436.287L612.624 436.27H613.168L675.73 435.718L722.759 460.3Z" fill="black"/>
<path d="M247.954 417.182V438.305C247.954 439.306 247.679 440.286 247.16 441.132C246.641 441.978 245.9 442.655 245.023 443.084C244.37 443.41 243.655 443.587 242.929 443.601L213.704 444.24C212.924 444.259 212.15 444.091 211.443 443.748C210.55 443.327 209.794 442.65 209.264 441.798C208.734 440.946 208.453 439.955 208.454 438.944V417.182H247.954Z" fill="#3F3D56"/>
<path opacity="0.1" d="M247.954 417.182V438.305C247.954 439.306 247.679 440.286 247.16 441.132C246.641 441.978 245.9 442.655 245.023 443.084C244.37 443.41 243.655 443.587 242.929 443.601L213.704 444.24C212.924 444.259 212.15 444.091 211.443 443.748C210.55 443.327 209.794 442.65 209.264 441.798C208.734 440.946 208.453 439.955 208.454 438.944V417.182H247.954Z" fill="black"/>
<path d="M249.629 417.182V438.305C249.629 439.306 249.354 440.286 248.835 441.132C248.316 441.978 247.575 442.655 246.698 443.084C246.044 443.41 245.33 443.587 244.604 443.601L215.379 444.24C214.598 444.259 213.824 444.091 213.118 443.748C212.225 443.327 211.469 442.65 210.939 441.798C210.409 440.946 210.127 439.955 210.128 438.944V417.182H249.629Z" fill="#3F3D56"/>
<path d="M609.71 417.182H570.21V444.352H609.71V417.182Z" fill="#3F3D56"/>
<path opacity="0.1" d="M609.71 417.182H570.21V444.352H609.71V417.182Z" fill="black"/>
<path d="M608.035 417.182H568.535V444.352H608.035V417.182Z" fill="#3F3D56"/>
<path opacity="0.1" d="M193.104 229.283V234.226L177.194 233.803V229.283H193.104Z" fill="black"/>
<path d="M297.829 90.0503L278.711 231.509C278.59 232.412 278.15 233.238 277.475 233.829C276.8 234.419 275.937 234.732 275.052 234.709L121.975 230.62L119.07 230.543C118.564 230.53 118.066 230.408 117.609 230.184C117.152 229.961 116.746 229.64 116.417 229.244C116.088 228.847 115.845 228.384 115.701 227.884C115.558 227.384 115.519 226.859 115.586 226.342L137.049 78.2593C137.187 77.342 137.654 76.5115 138.358 75.9318C139.062 75.3521 139.951 75.0654 140.85 75.1282L294.48 85.8411C294.975 85.8707 295.46 86.0058 295.902 86.2379C296.344 86.4699 296.735 86.794 297.05 87.1895C297.365 87.585 297.597 88.0434 297.731 88.5358C297.865 89.0282 297.898 89.5439 297.829 90.0503Z" fill="#65617D"/>
<path d="M147.324 85.5306L131.137 216.06L271.82 220.658L289.12 94.7254L147.324 85.5306Z" fill="#6554C0"/>
<path d="M488.991 83.5122H326.527C324.062 83.5122 322.064 85.5705 322.064 88.1096V228.421C322.064 230.96 324.062 233.018 326.527 233.018H488.991C491.456 233.018 493.454 230.96 493.454 228.421V88.1096C493.454 85.5705 491.456 83.5122 488.991 83.5122Z" fill="#65617D"/>
<path d="M485.909 93.5782H330.153V218.07H485.909V93.5782Z" fill="#6554C0"/>
<path opacity="0.1" d="M621.291 226.696V229.965L605.381 230.301V226.696H621.291Z" fill="black"/>
<path d="M693.081 223.936C693.104 224.293 693.056 224.651 692.941 224.989C692.826 225.327 692.646 225.638 692.411 225.902C692.176 226.166 691.892 226.379 691.576 226.527C691.259 226.675 690.917 226.756 690.569 226.765L533.808 230.103C533.157 230.117 532.525 229.876 532.039 229.43C531.552 228.983 531.248 228.364 531.187 227.696L517.713 83.4087C517.68 83.0507 517.718 82.6895 517.824 82.347C517.93 82.0044 518.103 81.6877 518.332 81.4159C518.56 81.1441 518.84 80.9229 519.154 80.7658C519.468 80.6087 519.81 80.5189 520.159 80.5019L675.731 72.5319L677.405 72.4457C678.071 72.4096 678.724 72.6412 679.227 73.0918C679.731 73.5424 680.044 74.1767 680.102 74.8608L693.081 223.936Z" fill="#65617D"/>
<path d="M526.665 88.9808L668.747 81.7871L680.747 212.895L539.787 216.345L526.665 88.9808Z" fill="#6554C0"/>
<path opacity="0.1" d="M693.081 223.936C693.104 224.293 693.056 224.651 692.941 224.989C692.826 225.327 692.646 225.638 692.411 225.902C692.176 226.166 691.892 226.379 691.576 226.527C691.259 226.675 690.917 226.756 690.569 226.765L675.731 72.5319L677.405 72.4457C678.071 72.4096 678.724 72.6412 679.227 73.0918C679.731 73.5424 680.044 74.1767 680.102 74.8608L693.081 223.936Z" fill="black"/>
<path opacity="0.1" d="M140.876 75.1196L121.975 230.62L119.07 230.543C118.564 230.53 118.066 230.408 117.609 230.184C117.152 229.961 116.746 229.64 116.417 229.244C116.088 228.847 115.845 228.384 115.701 227.884C115.558 227.384 115.519 226.859 115.586 226.342L137.049 78.2593C137.185 77.3357 137.655 76.4992 138.365 75.9172C139.074 75.3351 139.971 75.0502 140.876 75.1196Z" fill="black"/>
<path opacity="0.1" d="M193.104 264.294H177.194V279.027H193.104V264.294Z" fill="black"/>
<path opacity="0.1" d="M249.629 417.173V421.46L210.128 422.547V417.173H249.629Z" fill="black"/>
<path d="M319.342 269.427V414.508C319.332 415.393 318.991 416.241 318.391 416.875C317.791 417.509 316.977 417.882 316.118 417.915L155.631 422.314H155.589C154.715 422.303 153.88 421.94 153.262 421.303C152.644 420.667 152.292 419.807 152.281 418.907V269.427C152.292 268.526 152.644 267.666 153.262 267.03C153.88 266.393 154.715 266.031 155.589 266.019H316.034C316.908 266.031 317.743 266.393 318.361 267.03C318.979 267.666 319.331 268.526 319.342 269.427Z" fill="#65617D"/>
<path opacity="0.1" d="M155.631 266.019V422.314H155.589C154.715 422.303 153.88 421.94 153.262 421.303C152.644 420.667 152.292 419.807 152.281 418.907V269.427C152.292 268.526 152.644 267.666 153.262 267.03C153.88 266.393 154.715 266.031 155.589 266.019H155.631Z" fill="black"/>
<path d="M162.958 275.283H311.596V403.156L162.958 406.607V275.283Z" fill="#D4DFEC"/>
<path opacity="0.1" d="M621.291 264.294H605.381V279.32H621.291V264.294Z" fill="black"/>
<path opacity="0.1" d="M608.035 417.173V422.702L568.535 421.615V417.173H608.035Z" fill="black"/>
<path d="M660.163 269.427V418.907C660.152 419.814 659.795 420.681 659.168 421.318C658.541 421.956 657.695 422.314 656.814 422.314L496.293 417.915C495.433 417.882 494.62 417.509 494.019 416.875C493.419 416.241 493.079 415.393 493.069 414.508V269.427C493.08 268.526 493.432 267.666 494.05 267.03C494.668 266.393 495.503 266.031 496.376 266.019H656.822C657.702 266.022 658.545 266.38 659.17 267.018C659.796 267.655 660.152 268.52 660.163 269.427Z" fill="#65617D"/>
<path opacity="0.1" d="M660.163 269.427V418.907C660.152 419.814 659.795 420.681 659.168 421.318C658.541 421.956 657.695 422.314 656.814 422.314V266.019C657.695 266.019 658.541 266.377 659.168 267.015C659.795 267.652 660.152 268.519 660.163 269.427Z" fill="black"/>
<path d="M649.486 275.283H500.848V403.156L649.486 406.607V275.283Z" fill="#D4DFEC"/>
<path d="M488.915 269.427V414.508C488.905 415.393 488.565 416.241 487.965 416.875C487.364 417.509 486.551 417.882 485.691 417.915L325.204 422.314C324.323 422.314 323.477 421.956 322.85 421.318C322.223 420.681 321.865 419.814 321.854 418.907V269.427C321.865 268.526 322.217 267.666 322.835 267.03C323.453 266.393 324.288 266.031 325.162 266.019H485.608C486.481 266.031 487.316 266.393 487.934 267.03C488.552 267.666 488.904 268.526 488.915 269.427Z" fill="#65617D"/>
<path d="M332.531 275.283H481.169V403.156L332.531 406.607V275.283Z" fill="#D4DFEC"/>
<path opacity="0.1" d="M722.759 460.301V471.514L595.541 472.721L594.185 472.747L545.833 473.204L544.678 473.221L529.981 473.351H529.546L439.961 474.205L292.905 475.611H292.78L255.39 475.973L254.988 475.982L88.848 477.552V464.613L258.43 463.466H258.832L293.157 463.225H293.316L530.366 461.612H530.609L530.752 461.603H531.145L535.156 461.577H536.379L598.757 461.146L602.441 461.129L603.262 461.12L722.759 460.301Z" fill="black"/>
<path d="M408.031 279.027C431.77 279.027 451.015 259.204 451.015 234.752C451.015 210.3 431.77 190.477 408.031 190.477C384.292 190.477 365.047 210.3 365.047 234.752C365.047 259.204 384.292 279.027 408.031 279.027Z" fill="#FBBEBE"/>
<path d="M451.023 325.32C451.023 325.32 367.702 335.67 375.657 325.32C378.538 321.576 379.333 310.484 379.174 297.848C379.124 294.009 378.99 290.033 378.797 286.074C377.876 267.098 375.657 248.553 375.657 248.553C375.657 248.553 448.511 213.188 440.137 241.221C436.787 252.546 437.884 268.452 440.43 283.383C441.175 287.738 442.038 292.008 442.942 296.062C445.149 305.95 447.846 315.716 451.023 325.32Z" fill="#FBBEBE"/>
<path opacity="0.1" d="M451.023 325.32C451.023 325.32 367.702 335.67 375.657 325.32C378.538 321.576 379.333 310.484 379.174 297.848C391.878 292.258 408.039 296.424 408.039 296.424C425.055 292.931 435.967 293.612 442.942 296.062C445.149 305.95 447.846 315.716 451.023 325.32Z" fill="black"/>
<path d="M292.872 476.585V475.861L439.936 474.213L529.537 473.351H529.789L529.697 474.627L529.822 473.351H529.981V473.204L531.128 461.603L531.564 457.213L531.698 455.841L531.815 454.694L536.99 436.917L542.165 419.165L546.52 404.217L553.169 381.377C553.169 381.377 549.401 372.32 547.307 369.733C545.214 367.145 543.12 349.463 543.12 349.463C543.12 349.463 525.25 331.927 517.437 329.909C514.163 329.046 507.698 327.899 500.831 326.458C498.261 325.924 495.623 325.354 493.085 324.733C491.654 324.397 490.247 324.043 488.898 323.69C486.274 323.014 483.689 322.191 481.153 321.223C479.823 320.725 478.557 320.062 477.384 319.247C471.229 314.598 455.805 314.072 455.21 314.072C455.208 314.052 455.208 314.032 455.21 314.012V313.934C455.232 313.572 455.232 313.209 455.21 312.847C455.21 312.502 455.21 312.097 455.135 311.64C455.135 311.502 455.135 311.355 455.076 311.209C455.034 310.898 454.984 310.57 454.908 310.225C454.883 310.071 454.85 309.918 454.808 309.768C454.565 308.729 454.214 307.719 453.761 306.758C453.703 306.62 453.627 306.473 453.56 306.335C453.15 305.538 452.673 304.779 452.137 304.067C452.028 303.92 451.911 303.765 451.785 303.618C451.099 302.785 450.336 302.022 449.507 301.341C449.281 301.16 449.047 300.97 448.804 300.798C448.668 300.684 448.526 300.581 448.377 300.487L447.632 299.987L446.936 299.573C446.325 299.228 445.68 298.891 444.977 298.572C444.759 298.469 444.525 298.374 444.29 298.279C444.056 298.184 443.687 298.037 443.378 297.917H443.327L442.699 297.658C442.222 297.494 441.736 297.347 441.225 297.201L440.447 296.994L439.609 296.795L438.772 296.614C437.934 296.442 437.038 296.286 436.101 296.166L435.146 296.045L434.166 295.941L433.153 295.855L431.713 295.769L430.038 295.708C422.651 295.708 415.286 296.514 408.064 298.115C403.048 296.965 397.91 296.478 392.774 296.666H392.045L391.208 296.718H390.672L389.591 296.821C389.231 296.821 388.863 296.899 388.503 296.951C388.143 297.002 387.766 297.045 387.406 297.106L386.853 297.201C386.309 297.296 385.756 297.399 385.178 297.52C384.994 297.554 384.81 297.597 384.626 297.649C383.897 297.813 383.169 298.011 382.448 298.236C382.088 298.339 381.728 298.46 381.368 298.589C381.184 298.641 381.008 298.71 380.832 298.779L380.296 298.978L379.769 299.193L379.141 299.452C378.822 299.59 378.513 299.737 378.203 299.892C378.027 299.969 377.851 300.056 377.684 300.151C377.516 300.245 377.34 300.323 377.181 300.418C375.288 301.426 373.538 302.697 371.981 304.196L371.554 304.619L371.135 305.059C370.993 305.205 370.859 305.36 370.725 305.516C370.179 306.13 369.67 306.778 369.201 307.456C369.067 307.638 368.941 307.819 368.816 308.008C368.284 308.816 367.803 309.657 367.375 310.527C367.266 310.734 367.166 310.95 367.065 311.157C366.382 312.614 365.822 314.129 365.391 315.685C365.234 316.26 365.092 316.835 364.963 317.41C364.963 317.41 347.236 325.466 332.531 331.297C328.62 332.85 324.936 334.256 321.854 335.317C320.958 335.627 320.121 335.912 319.342 336.179C317.652 336.808 315.895 337.225 314.108 337.421C313.266 337.436 312.426 337.516 311.596 337.663C304.838 338.793 293.257 343.701 291.993 348.626C291.89 349.019 291.861 349.429 291.909 349.834C291.909 349.834 291.909 349.894 291.909 349.928C292.746 355.966 286.884 355.104 286.884 355.104C286.884 355.104 284.791 371.061 281.86 375.374C279.741 378.479 278.293 385.405 278.109 390.632C278.003 392.261 278.127 393.896 278.477 395.488C278.477 395.531 278.477 395.575 278.477 395.609C278.812 396.765 278.008 399.922 276.643 403.967C275.161 408.409 273 413.93 270.924 419.14C267.792 427.006 264.844 434.148 264.66 435.718C264.585 436.416 264.367 437.667 264.065 439.28C262.843 445.853 260.13 458.368 258.79 463.432C257.793 467.21 256.345 472.385 255.348 475.939C255.348 476.042 255.289 476.146 255.264 476.24L292.805 475.861V476.585H292.922H292.872Z" fill="#6554C0"/>
<path opacity="0.1" d="M306.572 374.917C306.572 374.917 354.303 400.362 371.47 397.343L306.572 374.917Z" fill="black"/>
<path opacity="0.1" d="M403.71 364.566C403.71 364.566 450.186 380.092 465.678 382.248C481.169 384.405 403.71 364.566 403.71 364.566Z" fill="black"/>
<path opacity="0.1" d="M455.26 314.607C430.976 319.213 385.254 318.221 365.491 317.522C372.735 290.783 408.056 299.875 408.056 299.875C451.777 290.887 455.126 309.535 455.26 314.607Z" fill="black"/>
<path d="M455.26 312.882C430.976 317.488 385.254 316.496 365.491 315.797C372.735 289.058 408.056 298.149 408.056 298.149C451.777 289.162 455.126 307.81 455.26 312.882Z" fill="#6554C0"/>
<path d="M584.169 430.767C584.169 430.767 612.775 426.238 613.336 439.177C613.897 452.115 598.748 461.154 598.748 461.154L584.169 430.767Z" fill="#FBBEBE"/>
<path opacity="0.1" d="M440.43 283.383C439.199 283.949 437.942 284.45 436.662 284.883C427.634 288.092 418.532 291.327 409.027 292.5C399.523 293.673 389.549 292.638 381.259 287.756C380.389 287.249 379.55 286.688 378.747 286.074C377.826 267.098 375.607 248.553 375.607 248.553C375.607 248.553 448.46 213.188 440.086 241.221C436.754 252.546 437.884 268.452 440.43 283.383Z" fill="black"/>
<path d="M396.24 165.549C395.045 165.875 393.793 165.907 392.583 165.645C391.373 165.383 390.24 164.834 389.273 164.04L391.015 166.533C389.989 166.655 388.949 166.544 387.968 166.209C386.987 165.874 386.089 165.322 385.337 164.592C385.179 166.824 385.269 169.066 385.605 171.277C382.723 171.42 379.886 170.503 377.6 168.689C377.555 169.467 377.743 170.241 378.138 170.906C378.534 171.57 379.117 172.094 379.811 172.407C376.915 172.051 373.993 172.791 371.59 174.491C369.186 176.191 367.465 178.734 366.747 181.645L371.118 182.059C367.683 182.814 364.6 184.752 362.376 187.553C361.036 189.278 360.014 191.486 360.601 193.591C361.187 195.696 364.017 197.041 365.558 195.54C363.366 198.235 361.773 201.391 360.891 204.787C360.008 208.182 359.858 211.736 360.45 215.198C360.847 216.673 360.978 218.211 360.835 219.735C360.559 221.158 359.688 222.392 359.252 223.78C358.415 226.299 359.211 229.033 359.956 231.543L363.883 244.844C365.307 249.648 366.722 254.461 368.581 259.11C369.897 262.05 371.017 265.079 371.931 268.176C372.986 272.351 373.028 276.922 375.28 280.571C376.824 282.867 378.888 284.741 381.293 286.031C389.575 290.913 399.582 291.948 409.061 290.775C418.54 289.602 427.634 286.367 436.653 283.158C438.657 282.537 440.58 281.668 442.381 280.571C448.62 276.361 450.01 267.753 451.174 260.171C452.472 251.718 454.205 243.283 457.278 235.33C459.104 230.594 461.465 225.79 461.063 220.718C460.553 213.982 455.377 208.522 454.096 201.897C453.667 199.683 453.687 197.401 454.155 195.195C454.552 193.881 454.775 192.517 454.816 191.141C454.674 188.364 452.463 186.225 450.387 184.439C445.881 180.564 441.231 176.901 436.435 173.45C436.193 171.725 438.47 170.984 439.5 169.621C440.957 167.697 439.45 164.644 437.239 163.747C435.029 162.85 432.55 163.436 430.247 164.031C430.397 162.817 430.163 161.586 429.579 160.52C428.995 159.454 428.092 158.611 427.006 158.115C425.919 157.62 424.706 157.5 423.548 157.771C422.389 158.043 421.347 158.693 420.575 159.624C419.964 158.179 418.987 156.931 417.746 156.008C416.506 155.085 415.048 154.523 413.524 154.379C407.972 153.931 407.863 158.304 404.313 160.711C400.762 163.117 397.831 159.943 395.101 157.631C394.6 158.938 394.441 160.358 394.641 161.748C394.841 163.137 395.393 164.449 396.24 165.549Z" fill="#3F3D56"/>
<path d="M605.381 456.643C605.381 456.643 604.635 458.472 603.262 461.12C601.185 465.194 598.655 469.006 595.725 472.48L595.499 472.73H594.143L545.791 473.187H544.636L544.493 473.014L535.115 461.551L531.581 457.23L531.438 457.049L531.137 456.686L530.969 456.479L530.752 456.212L523.877 447.811L526.389 437.029L530.668 418.864L530.777 418.424L531.614 414.973L532.209 412.386L534.202 403.95L541.035 374.925L553.177 381.394L565.981 404.683L572.856 417.19H576.624C577.336 417.19 578.969 418.605 580.61 420.235C581.197 420.813 581.783 421.425 582.285 421.96C583.776 423.547 584.956 424.91 584.956 424.91C584.956 424.91 591.061 425.048 592.702 429.999C592.787 430.239 592.857 430.484 592.912 430.732C593.457 432.678 594.165 434.572 595.03 436.391C596.111 438.814 597.467 441.566 598.84 444.317C601.395 449.363 603.99 454.168 604.945 455.91L605.062 456.126L605.381 456.643Z" fill="#6554C0"/>
<path opacity="0.1" d="M533.448 417.699L533.364 418.932V419.019L533.222 421.003L532.108 436.968L530.76 456.203L530.375 461.62L529.538 473.213V473.359L439.936 474.222L292.897 475.861V476.585H292.78V475.861V475.619L293.157 463.233L293.877 439.03L294.496 418.51L294.555 416.466C294.592 415.232 294.872 414.019 295.379 412.9C295.886 411.782 296.609 410.781 297.504 409.96C298.399 409.139 299.447 408.515 300.585 408.125C301.722 407.735 302.924 407.589 304.118 407.693C308.071 408.038 313.204 408.461 319.342 408.91L321.854 409.099C357.301 411.635 422.811 414.913 488.915 410.825C490.305 410.747 491.704 410.661 493.102 410.557C503.352 409.893 513.593 409.039 523.734 407.969C525.016 407.831 526.312 407.984 527.531 408.417C528.749 408.85 529.86 409.554 530.786 410.477C531.713 411.401 532.431 412.522 532.891 413.762C533.351 415.003 533.541 416.332 533.448 417.656V417.699Z" fill="black"/>
<path d="M292.872 476.585V475.861L439.936 474.213L529.537 473.351H529.789V473.204L530.626 461.612L530.986 456.436L532.359 436.934L533.44 421.494V421.115C533.49 420.403 533.459 419.688 533.348 418.984C533.352 418.956 533.352 418.927 533.348 418.898C533.118 417.442 532.542 416.068 531.673 414.896C530.751 413.678 529.543 412.722 528.162 412.118C526.782 411.515 525.276 411.283 523.785 411.446C513.644 412.515 503.402 413.369 493.152 414.033C491.754 414.137 490.356 414.223 488.965 414.301C422.861 418.346 357.352 415.068 321.904 412.575L319.392 412.386C313.254 411.937 308.121 411.523 304.168 411.17C301.994 410.981 299.829 411.628 298.091 412.987C296.352 414.345 295.164 416.319 294.756 418.527C294.671 418.994 294.621 419.467 294.605 419.942L294.036 439.056L293.257 463.268L292.889 475.654V475.895V476.62L292.872 476.585Z" fill="#3F3D56"/>
<path opacity="0.1" d="M533.699 423.746L532.669 436.968L531.137 456.678L530.752 461.612L529.914 472.661L529.864 473.213V473.359L529.738 474.636L529.831 473.359H529.588L439.986 474.222L292.897 475.861V475.619L293.307 463.233L294.145 439.03L294.681 422.943C294.707 422.028 294.955 421.135 295.403 420.344C295.85 419.553 296.483 418.89 297.243 418.415C298.191 417.816 299.3 417.544 300.408 417.639C302.167 417.785 304.327 417.958 306.848 418.148C310.943 418.458 315.992 418.82 321.871 419.2C332.757 419.907 346.415 420.666 362.066 421.287C405.611 423.012 464.396 423.59 520.234 418.553C522.746 418.329 525.342 418.079 527.879 417.828C528.884 417.725 529.896 417.923 530.794 418.398C531.048 418.528 531.289 418.684 531.514 418.864C532.243 419.408 532.82 420.139 533.189 420.985C533.274 421.154 533.344 421.33 533.398 421.512C533.649 422.226 533.752 422.987 533.699 423.746Z" fill="black"/>
<path opacity="0.1" d="M249.629 435.554V438.305C249.629 439.306 249.354 440.286 248.835 441.132C248.316 441.978 247.575 442.655 246.698 443.084L213.118 443.748C212.225 443.327 211.469 442.65 210.939 441.798C210.409 440.946 210.127 439.955 210.128 438.944V436.356L249.629 435.554Z" fill="black"/>
<path d="M250.047 444.706L206.293 445.568V438.09L250.047 437.227V444.706Z" fill="#3F3D56"/>
<path opacity="0.1" d="M250.047 444.706L206.293 445.568V438.09L250.047 437.227V444.706Z" fill="black"/>
<path d="M251.722 444.706L207.968 445.568V438.09L251.722 437.227V444.706Z" fill="#3F3D56"/>
<g opacity="0.1">
<path opacity="0.1" d="M396.584 162.72C395.765 161.625 395.222 160.34 395.001 158.977C394.799 160.309 394.92 161.672 395.353 162.945C395.768 162.905 396.18 162.83 396.584 162.72Z" fill="black"/>
<path opacity="0.1" d="M385.948 168.448C385.79 167.39 385.687 166.325 385.639 165.256C385.639 166.317 385.639 167.387 385.639 168.456L385.948 168.448Z" fill="black"/>
<path opacity="0.1" d="M454.197 197.231C454.243 196.463 454.344 195.699 454.498 194.945C454.894 193.633 455.12 192.273 455.168 190.9C455.149 190.592 455.104 190.286 455.034 189.986C454.892 190.779 454.666 191.573 454.498 192.358C454.164 193.958 454.062 195.6 454.197 197.231Z" fill="black"/>
<path opacity="0.1" d="M436.779 170.578L437.692 171.26C438.461 170.686 439.181 170.046 439.844 169.345C440.159 168.896 440.354 168.37 440.41 167.819C440.466 167.268 440.38 166.711 440.162 166.205C440.078 166.402 439.972 166.587 439.844 166.757C438.814 168.12 436.536 168.87 436.779 170.578Z" fill="black"/>
<path opacity="0.1" d="M367.97 178.876C367.664 179.505 367.42 180.164 367.241 180.842C368.551 180.089 369.962 179.54 371.428 179.212L367.97 178.876Z" fill="black"/>
<path opacity="0.1" d="M379.517 169.491C378.967 169.179 378.441 168.825 377.943 168.43C377.922 168.772 377.947 169.114 378.018 169.448C378.518 169.424 379.02 169.438 379.517 169.491Z" fill="black"/>
<path opacity="0.1" d="M461.39 220.313C461.047 224.496 459.154 228.524 457.622 232.492C454.548 240.445 452.815 248.881 451.517 257.342C450.353 264.924 449.005 273.532 442.724 277.733C440.93 278.837 439.008 279.706 437.005 280.32C427.978 283.538 418.875 286.764 409.371 287.937C399.866 289.11 389.893 288.083 381.603 283.201C379.199 281.91 377.136 280.036 375.59 277.741C373.354 274.093 373.312 269.521 372.24 265.347C371.326 262.247 370.207 259.215 368.891 256.273C367.04 251.632 365.617 246.785 364.201 242.015C362.89 237.581 361.58 233.145 360.274 228.705C359.844 227.37 359.524 225.999 359.319 224.608C358.993 226.816 359.629 229.128 360.274 231.293C361.58 235.738 362.89 240.174 364.201 244.602C365.617 249.407 367.04 254.22 368.891 258.86C370.207 261.803 371.326 264.834 372.24 267.934C373.296 272.109 373.337 276.681 375.59 280.329C377.136 282.624 379.199 284.497 381.603 285.789C389.893 290.671 399.891 291.698 409.371 290.524C418.85 289.351 427.944 286.125 437.005 282.908C439.008 282.294 440.93 281.425 442.724 280.32C448.963 276.12 450.353 267.512 451.517 259.93C452.815 251.468 454.548 243.032 457.622 235.08C459.447 230.353 461.809 225.549 461.407 220.468C461.407 220.416 461.39 220.365 461.39 220.313Z" fill="black"/>
<path opacity="0.1" d="M361.162 216.975C361.162 216.975 361.162 216.914 361.162 216.88C361.313 215.359 361.182 213.822 360.776 212.351C360.609 211.405 360.5 210.448 360.45 209.488C360.353 211.312 360.463 213.141 360.776 214.939C360.91 215.612 361.061 216.293 361.162 216.975Z" fill="black"/>
<path opacity="0.1" d="M363.716 195.877C364.36 194.762 365.091 193.704 365.901 192.711C364.369 194.221 361.539 192.875 360.944 190.779C360.725 191.627 360.725 192.519 360.944 193.367C361.15 194 361.515 194.565 362.002 195.006C362.489 195.447 363.08 195.747 363.716 195.877Z" fill="black"/>
</g>
<path opacity="0.1" d="M572.864 417.182C572.864 417.182 575.519 427.101 572.864 435.726C570.21 444.352 572.864 417.182 572.864 417.182Z" fill="black"/>
<path opacity="0.1" d="M584.169 427.299C584.169 427.299 585.283 439.892 582.771 442.126C580.259 444.36 584.169 427.299 584.169 427.299Z" fill="black"/>
<path d="M166.634 295.734L251.722 294.872" stroke="#6554C0" stroke-width="2" stroke-miterlimit="10"/>
<path d="M166.634 306.49L251.722 305.636" stroke="#6554C0" stroke-width="2" stroke-miterlimit="10"/>
<path d="M166.634 317.255L251.722 316.392" stroke="#6554C0" stroke-width="2" stroke-miterlimit="10"/>
</g>
<defs>
<clipPath id="clip0">
<rect width="872" height="478" fill="white"/>
</clipPath>
</defs>
</svg>
