<svg width="317" height="37" viewBox="0 0 317 37" fill="none" xmlns="http://www.w3.org/2000/svg">
<path d="M22.3125 28.9688H9.98438L7.64062 36H0.164062L12.8672 1.875H19.3828L32.1562 36H24.6797L22.3125 28.9688ZM11.8828 23.2734H20.4141L16.125 10.5L11.8828 23.2734ZM40.0078 10.6406L40.2188 13.5703C42.0312 11.3047 44.4609 10.1719 47.5078 10.1719C50.1953 10.1719 52.1953 10.9609 53.5078 12.5391C54.8203 14.1172 55.4922 16.4766 55.5234 19.6172V36H48.75V19.7812C48.75 18.3438 48.4375 17.3047 47.8125 16.6641C47.1875 16.0078 46.1484 15.6797 44.6953 15.6797C42.7891 15.6797 41.3594 16.4922 40.4062 18.1172V36H33.6328V10.6406H40.0078ZM68.7891 4.40625V10.6406H73.125V15.6094H68.7891V28.2656C68.7891 29.2031 68.9688 29.875 69.3281 30.2812C69.6875 30.6875 70.375 30.8906 71.3906 30.8906C72.1406 30.8906 72.8047 30.8359 73.3828 30.7266V35.8594C72.0547 36.2656 70.6875 36.4688 69.2812 36.4688C64.5312 36.4688 62.1094 34.0703 62.0156 29.2734V15.6094H58.3125V10.6406H62.0156V4.40625H68.7891ZM75.1406 23.0859C75.1406 20.5703 75.625 18.3281 76.5938 16.3594C77.5625 14.3906 78.9531 12.8672 80.7656 11.7891C82.5938 10.7109 84.7109 10.1719 87.1172 10.1719C90.5391 10.1719 93.3281 11.2188 95.4844 13.3125C97.6562 15.4062 98.8672 18.25 99.1172 21.8438L99.1641 23.5781C99.1641 27.4688 98.0781 30.5938 95.9062 32.9531C93.7344 35.2969 90.8203 36.4688 87.1641 36.4688C83.5078 36.4688 80.5859 35.2969 78.3984 32.9531C76.2266 30.6094 75.1406 27.4219 75.1406 23.3906V23.0859ZM81.9141 23.5781C81.9141 25.9844 82.3672 27.8281 83.2734 29.1094C84.1797 30.375 85.4766 31.0078 87.1641 31.0078C88.8047 31.0078 90.0859 30.3828 91.0078 29.1328C91.9297 27.8672 92.3906 25.8516 92.3906 23.0859C92.3906 20.7266 91.9297 18.8984 91.0078 17.6016C90.0859 16.3047 88.7891 15.6562 87.1172 15.6562C85.4609 15.6562 84.1797 16.3047 83.2734 17.6016C82.3672 18.8828 81.9141 20.875 81.9141 23.5781ZM109.57 10.6406L109.781 13.5703C111.594 11.3047 114.023 10.1719 117.07 10.1719C119.758 10.1719 121.758 10.9609 123.07 12.5391C124.383 14.1172 125.055 16.4766 125.086 19.6172V36H118.312V19.7812C118.312 18.3438 118 17.3047 117.375 16.6641C116.75 16.0078 115.711 15.6797 114.258 15.6797C112.352 15.6797 110.922 16.4922 109.969 18.1172V36H103.195V10.6406H109.57ZM137.391 36H130.594V10.6406H137.391V36ZM130.195 4.07812C130.195 3.0625 130.531 2.22656 131.203 1.57031C131.891 0.914062 132.82 0.585938 133.992 0.585938C135.148 0.585938 136.07 0.914062 136.758 1.57031C137.445 2.22656 137.789 3.0625 137.789 4.07812C137.789 5.10938 137.438 5.95312 136.734 6.60938C136.047 7.26562 135.133 7.59375 133.992 7.59375C132.852 7.59375 131.93 7.26562 131.227 6.60938C130.539 5.95312 130.195 5.10938 130.195 4.07812ZM141.938 23.0859C141.938 20.5703 142.422 18.3281 143.391 16.3594C144.359 14.3906 145.75 12.8672 147.562 11.7891C149.391 10.7109 151.508 10.1719 153.914 10.1719C157.336 10.1719 160.125 11.2188 162.281 13.3125C164.453 15.4062 165.664 18.25 165.914 21.8438L165.961 23.5781C165.961 27.4688 164.875 30.5938 162.703 32.9531C160.531 35.2969 157.617 36.4688 153.961 36.4688C150.305 36.4688 147.383 35.2969 145.195 32.9531C143.023 30.6094 141.938 27.4219 141.938 23.3906V23.0859ZM148.711 23.5781C148.711 25.9844 149.164 27.8281 150.07 29.1094C150.977 30.375 152.273 31.0078 153.961 31.0078C155.602 31.0078 156.883 30.3828 157.805 29.1328C158.727 27.8672 159.188 25.8516 159.188 23.0859C159.188 20.7266 158.727 18.8984 157.805 17.6016C156.883 16.3047 155.586 15.6562 153.914 15.6562C152.258 15.6562 150.977 16.3047 150.07 17.6016C149.164 18.8828 148.711 20.875 148.711 23.5781ZM209.32 24.6328C209.055 28.3047 207.695 31.1953 205.242 33.3047C202.805 35.4141 199.586 36.4688 195.586 36.4688C191.211 36.4688 187.766 35 185.25 32.0625C182.75 29.1094 181.5 25.0625 181.5 19.9219V17.8359C181.5 14.5547 182.078 11.6641 183.234 9.16406C184.391 6.66406 186.039 4.75 188.18 3.42188C190.336 2.07813 192.836 1.40625 195.68 1.40625C199.617 1.40625 202.789 2.46094 205.195 4.57031C207.602 6.67969 208.992 9.64062 209.367 13.4531H202.336C202.164 11.25 201.547 9.65625 200.484 8.67188C199.438 7.67187 197.836 7.17188 195.68 7.17188C193.336 7.17188 191.578 8.01562 190.406 9.70312C189.25 11.375 188.656 13.9766 188.625 17.5078V20.0859C188.625 23.7734 189.18 26.4688 190.289 28.1719C191.414 29.875 193.18 30.7266 195.586 30.7266C197.758 30.7266 199.375 30.2344 200.438 29.25C201.516 28.25 202.133 26.7109 202.289 24.6328H209.32ZM228.188 36C227.875 35.3906 227.648 34.6328 227.508 33.7266C225.867 35.5547 223.734 36.4688 221.109 36.4688C218.625 36.4688 216.562 35.75 214.922 34.3125C213.297 32.875 212.484 31.0625 212.484 28.875C212.484 26.1875 213.477 24.125 215.461 22.6875C217.461 21.25 220.344 20.5234 224.109 20.5078H227.227V19.0547C227.227 17.8828 226.922 16.9453 226.312 16.2422C225.719 15.5391 224.773 15.1875 223.477 15.1875C222.336 15.1875 221.438 15.4609 220.781 16.0078C220.141 16.5547 219.82 17.3047 219.82 18.2578H213.047C213.047 16.7891 213.5 15.4297 214.406 14.1797C215.312 12.9297 216.594 11.9531 218.25 11.25C219.906 10.5312 221.766 10.1719 223.828 10.1719C226.953 10.1719 229.43 10.9609 231.258 12.5391C233.102 14.1016 234.023 16.3047 234.023 19.1484V30.1406C234.039 32.5469 234.375 34.3672 235.031 35.6016V36H228.188ZM222.586 31.2891C223.586 31.2891 224.508 31.0703 225.352 30.6328C226.195 30.1797 226.82 29.5781 227.227 28.8281V24.4688H224.695C221.305 24.4688 219.5 25.6406 219.281 27.9844L219.258 28.3828C219.258 29.2266 219.555 29.9219 220.148 30.4688C220.742 31.0156 221.555 31.2891 222.586 31.2891ZM253.477 16.9922C252.555 16.8672 251.742 16.8047 251.039 16.8047C248.477 16.8047 246.797 17.6719 246 19.4062V36H239.227V10.6406H245.625L245.812 13.6641C247.172 11.3359 249.055 10.1719 251.461 10.1719C252.211 10.1719 252.914 10.2734 253.57 10.4766L253.477 16.9922ZM263.906 36H257.109V0H263.906V36ZM268.453 23.0859C268.453 20.5703 268.938 18.3281 269.906 16.3594C270.875 14.3906 272.266 12.8672 274.078 11.7891C275.906 10.7109 278.023 10.1719 280.43 10.1719C283.852 10.1719 286.641 11.2188 288.797 13.3125C290.969 15.4062 292.18 18.25 292.43 21.8438L292.477 23.5781C292.477 27.4688 291.391 30.5938 289.219 32.9531C287.047 35.2969 284.133 36.4688 280.477 36.4688C276.82 36.4688 273.898 35.2969 271.711 32.9531C269.539 30.6094 268.453 27.4219 268.453 23.3906V23.0859ZM275.227 23.5781C275.227 25.9844 275.68 27.8281 276.586 29.1094C277.492 30.375 278.789 31.0078 280.477 31.0078C282.117 31.0078 283.398 30.3828 284.32 29.1328C285.242 27.8672 285.703 25.8516 285.703 23.0859C285.703 20.7266 285.242 18.8984 284.32 17.6016C283.398 16.3047 282.102 15.6562 280.43 15.6562C278.773 15.6562 277.492 16.3047 276.586 17.6016C275.68 18.8828 275.227 20.875 275.227 23.5781ZM310.383 28.9922C310.383 28.1641 309.969 27.5156 309.141 27.0469C308.328 26.5625 307.016 26.1328 305.203 25.7578C299.172 24.4922 296.156 21.9297 296.156 18.0703C296.156 15.8203 297.086 13.9453 298.945 12.4453C300.82 10.9297 303.266 10.1719 306.281 10.1719C309.5 10.1719 312.07 10.9297 313.992 12.4453C315.93 13.9609 316.898 15.9297 316.898 18.3516H310.125C310.125 17.3828 309.812 16.5859 309.188 15.9609C308.562 15.3203 307.586 15 306.258 15C305.117 15 304.234 15.2578 303.609 15.7734C302.984 16.2891 302.672 16.9453 302.672 17.7422C302.672 18.4922 303.023 19.1016 303.727 19.5703C304.445 20.0234 305.648 20.4219 307.336 20.7656C309.023 21.0938 310.445 21.4688 311.602 21.8906C315.18 23.2031 316.969 25.4766 316.969 28.7109C316.969 31.0234 315.977 32.8984 313.992 34.3359C312.008 35.7578 309.445 36.4688 306.305 36.4688C304.18 36.4688 302.289 36.0938 300.633 35.3438C298.992 34.5781 297.703 33.5391 296.766 32.2266C295.828 30.8984 295.359 29.4688 295.359 27.9375H301.781C301.844 29.1406 302.289 30.0625 303.117 30.7031C303.945 31.3438 305.055 31.6641 306.445 31.6641C307.742 31.6641 308.719 31.4219 309.375 30.9375C310.047 30.4375 310.383 29.7891 310.383 28.9922Z" fill="black"/>
</svg>
